# xmcd
#
# Track frame offsets:
#	150
#	13488
#	26509
#	39697
#	51740
#	61019
#	73763
#	87043
#	101704
#	114898
#	128998
#	141924
#	154016
#	168551
#	181993
#	194249
#	207539
#	223017
#	237515
#	251437
#	263582
#	276707
#	286763
#	303593
#	313464
#	326167
#
# Disc length: 4493 seconds
#
# Revision: 1
# Processed by: cddbd v1.4PL0 Copyright (c) Steve Scherf et al.
# Submitted via: audiograbber 1.81.03
#
DISCID=a2118b1a
DTITLE=Red Foley - Tennessee Saturday Night Disk 1
DYEAR=1900
DGENRE=Country
TTITLE0=Smoke On The Water
TTITLE1=There's A Blue Star Shining Bright
TTITLE2=Hang Your Head In Shame
TTITLE3=I'll Never Let You worry My Mind
TTITLE4=Shame Shame On You
TTITLE5=Harriet
TTITLE6=Have I Told You Lately That I Love You
TTITLE7=Old Shep
TTITLE8=That's How Much I Love You
TTITLE9=New Pretty Blond Jolie Blon)
TTITLE10=Freight Train Boogie
TTITLE11=Tennessee Saturday Night
TTITLE12=Never Trust A Woman
TTITLE13=Blues In My Heart
TTITLE14=Tennessee Border
TTITLE15=Candy Kisses
TTITLE16=Tennessee Polka
TTITLE17=Sunday Down In Tennesseee
TTITLE18=I Gotta Have My Baby Back
TTITLE19=Careless Kisses
TTITLE20=Just A Closer Walk With Thee
TTITLE21=When God Dips His Love In My Heart
TTITLE22=Steal Away
TTITLE23=Don't Be Ashamed Of Your Age (& Ernest Tubb)
TTITLE24=Chattanooga Shoe Shine Boy
TTITLE25=Sugarfoot Rag
EXTD=
EXTT0=
EXTT1=
EXTT2=
EXTT3=
EXTT4=
EXTT5=
EXTT6=
EXTT7=
EXTT8=
EXTT9=
EXTT10=
EXTT11=
EXTT12=
EXTT13=
EXTT14=
EXTT15=
EXTT16=
EXTT17=
EXTT18=
EXTT19=
EXTT20=
EXTT21=
EXTT22=
EXTT23=
EXTT24=
EXTT25=
PLAYORDER=
